<?xml version="1.0" encoding="iso-8859-1"?>
<!-- Uploaded to: SVG Repo, www.svgrepo.com, Generator: SVG Repo Mixer Tools -->
<svg version="1.1" id="Layer_1" xmlns="http://www.w3.org/2000/svg" xmlns:xlink="http://www.w3.org/1999/xlink" 
	 viewBox="0 0 512 512" xml:space="preserve">
<polygon style="fill:#57565C;" points="429.981,349.78 480.345,379.559 472.372,393.059 420.107,362.151 263.842,452.106 
	263.842,475.429 248.169,475.429 248.169,452.712 89.146,361.169 38.092,390.583 30.276,376.999 80.985,347.784 80.985,161.604 
	63.138,151.05 71.121,137.561 91.382,149.546 248.169,59.288 248.169,0 263.842,0 263.842,59.894 422.343,151.134 442.227,139.672 
	450.053,153.255 429.981,164.822 "/>
<path style="fill:#898890;" d="M322.513,157.257l-7.837,13.573l23.562,13.594l7.826-13.584L322.513,157.257z M322.513,157.257
	l-7.837,13.573l23.562,13.594l7.826-13.584L322.513,157.257z M429.981,349.78V164.822l20.072-11.567l-7.826-13.584l-19.884,11.463
	l-158.501-91.24V0h-15.673v59.288L91.382,149.546l-20.261-11.985l-7.983,13.49l17.847,10.553v186.18l-50.709,29.215l7.816,13.584
	l51.054-29.414l159.023,91.544v22.716h15.673v-23.322l156.264-89.955l52.266,30.908l7.973-13.5L429.981,349.78z M96.659,170.872
	l39.706,23.479V256h15.673v-52.381l39.706,23.479v56.874l-95.086,54.784C96.659,338.756,96.659,170.872,96.659,170.872z
	 M263.842,141.521l43.593,25.14l7.826-13.584l-51.419-29.654V77.981l142.796,82.192l-94.804,54.617l-47.992-27.826L263.842,141.521
	L263.842,141.521z M263.842,434.019V325.036l47.219-27.376l39.037,23.082l-42.632,24.597l7.837,13.584l50.28-29.017l39.027,23.082
	L263.842,434.019z M346.065,170.841l-23.552-13.584l-7.837,13.573l23.562,13.594L346.065,170.841z M276.642,363.123l7.837,13.584
	l22.988-13.27l-7.837-13.573L276.642,363.123z"/>
<rect x="458.658" y="121.68" transform="matrix(-0.4992 -0.8665 0.8665 -0.4992 582.6096 606.2249)" style="fill:#933EC5;" width="15.674" height="26.133"/>
<path d="M429.981,164.817l20.07-11.563l-7.824-13.581l-19.889,11.457L263.842,59.894V0h-15.673v59.292L91.385,149.545
	l-20.264-11.984l-7.979,13.491l17.843,10.551v186.182l-50.714,29.216l7.824,13.581l51.055-29.413l159.019,91.538v22.721h15.673
	v-23.322l156.269-89.955l52.26,30.904l7.978-13.491l-50.366-29.785V164.817H429.981z M414.307,340.51l-39.706-23.481V196.721
	l39.706-22.875V340.51z M319.222,284.28v-55.654l39.706-22.875v102.01L319.222,284.28z M199.652,297.51l48.518,28.129v45.428
	l-88.193-50.701L199.652,297.51z M263.842,205.084l32.319,18.738l-32.319,18.619V205.084L263.842,205.084z M248.169,242.262
	l-32.261-19.078l32.261-18.705V242.262z M248.169,186.361l-47.731,27.673l-39.033-23.083l86.764-50.036L248.169,186.361
	L248.169,186.361z M240.461,255.911l-33.043,19.036v-38.577L240.461,255.911z M248.169,269.559v37.962l-32.843-19.041
	L248.169,269.559z M263.842,269.739l31.744,18.773l-31.744,18.405L263.842,269.739L263.842,269.739z M271.551,256.089l31.998-18.434
	v37.356L271.551,256.089z M406.637,160.178l-94.8,54.615l-47.993-27.826v-45.448l43.591,25.138l7.83-13.577l-51.422-29.653V77.979
	L406.637,160.178z M248.169,77.377v45.447l-102.254,58.969l-39.033-23.083L248.169,77.377z M96.659,170.872l39.706,23.481V256
	h15.673v-52.379l39.706,23.481v56.875l-95.086,54.779C96.659,338.756,96.659,170.872,96.659,170.872z M104.853,352.123
	l39.418-22.709l103.898,59.731v45.477L104.853,352.123z M263.842,434.021V325.033l47.214-27.373l39.038,23.086l-42.628,24.597
	l7.833,13.575l50.283-29.014l39.032,23.082L263.842,434.021z"/>
<rect x="284.237" y="350.016" transform="matrix(0.4997 0.8662 -0.8662 0.4997 460.803 -71.2417)" width="15.673" height="26.54"/>
<rect x="322.528" y="157.259" transform="matrix(0.4996 -0.8663 0.8663 0.4996 17.3158 371.6829)" width="15.674" height="27.189"/>
<rect x="248.172" y="485.878" width="15.673" height="26.122"/>
<rect x="458.663" y="121.683" transform="matrix(-0.4992 -0.8665 0.8665 -0.4992 582.6187 606.2249)" width="15.674" height="26.123"/>
<rect x="33.843" y="124.505" transform="matrix(-0.8608 -0.509 0.509 -0.8608 19.919 270.132)" width="26.123" height="15.674"/>
<rect x="136.368" y="265.404" width="15.673" height="26.122"/>
</svg>